<?xml version="1.0" standalone="no"?>
<!DOCTYPE svg PUBLIC "-//W3C//DTD SVG 20010904//EN"
 "http://www.w3.org/TR/2001/REC-SVG-20010904/DTD/svg10.dtd">
<svg version="1.0" xmlns="http://www.w3.org/2000/svg"
 width="334.000000pt" height="334.000000pt" viewBox="0 0 334.000000 334.000000"
 preserveAspectRatio="xMidYMid meet">

<g transform="translate(0.000000,334.000000) scale(0.100000,-0.100000)"
fill="#000000" stroke="none">
<path d="M893 3084 c-3 -8 5 -39 17 -67 47 -107 48 -109 40 -182 -5 -38 -6
-73 -4 -77 5 -7 -8 -42 -58 -168 -41 -100 -54 -117 -104 -141 -48 -21 -53 -33
-28 -61 16 -16 14 -20 -23 -58 -27 -26 -50 -40 -67 -40 -29 0 -32 -7 -11 -34
13 -17 12 -22 -7 -48 -16 -23 -26 -28 -45 -23 -16 4 -34 -1 -55 -16 -30 -22
-30 -23 -9 -30 11 -5 21 -14 21 -21 0 -20 -50 -69 -62 -62 -5 3 -20 1 -31 -5
-12 -6 -34 -15 -49 -21 -34 -12 -37 -29 -4 -23 13 3 27 0 31 -6 11 -18 -15
-41 -75 -67 -74 -33 -83 -38 -88 -52 -2 -7 7 -12 22 -12 14 0 26 -4 26 -8 0
-16 -36 -42 -58 -42 -30 0 -93 -42 -87 -58 5 -13 -110 -102 -133 -102 -9 0
-12 -6 -8 -16 3 -9 6 -19 6 -24 0 -11 59 -70 70 -70 4 0 20 -24 35 -52 15 -29
33 -56 41 -61 7 -4 33 -23 58 -42 59 -45 109 -55 139 -27 12 11 31 22 42 26
11 3 38 31 60 62 60 84 122 105 166 57 56 -61 63 -82 62 -183 -1 -181 -15
-384 -29 -412 -8 -15 -14 -36 -14 -48 0 -11 -20 -42 -45 -68 -30 -31 -45 -55
-45 -73 0 -15 -6 -31 -13 -38 -10 -8 -11 -24 -5 -63 4 -29 10 -71 12 -92 2
-24 11 -45 24 -55 11 -9 23 -27 27 -40 4 -14 16 -34 26 -45 11 -11 19 -27 20
-35 1 -22 31 -72 50 -84 12 -8 25 -4 50 16 23 17 42 24 59 21 27 -6 35 4 75
86 19 38 42 144 44 200 1 8 3 33 6 55 9 79 17 211 16 258 -1 48 7 73 32 99 28
29 47 69 47 97 0 17 8 38 18 48 10 10 19 31 20 46 1 16 10 48 20 70 10 23 24
63 32 90 7 26 17 50 21 53 16 9 9 24 -10 24 -31 0 -33 16 -6 56 14 20 29 53
35 74 5 20 22 49 36 65 14 15 23 34 20 42 -4 8 3 27 14 43 11 15 20 34 20 42
0 15 -33 -39 -92 -152 -22 -41 -44 -79 -49 -85 -5 -5 -9 -15 -9 -22 0 -8 -19
-37 -41 -66 -23 -29 -57 -76 -76 -106 -31 -48 -36 -52 -50 -39 -9 10 -16 43
-19 94 -6 89 -17 133 -46 184 -12 19 -32 55 -46 80 -14 25 -31 49 -38 53 -8 4
-14 15 -14 24 0 9 -10 31 -21 50 -18 28 -20 39 -10 59 6 13 17 24 24 24 7 0
32 14 56 31 62 46 282 267 318 320 18 25 43 53 57 62 30 20 44 65 61 192 12
86 11 91 -8 106 -14 11 -23 35 -28 75 -4 32 -20 86 -34 119 -21 48 -35 65 -71
87 -24 15 -49 40 -55 55 -5 15 -19 33 -30 41 -10 7 -28 30 -39 51 -21 42 -83
101 -106 101 -8 0 -17 -7 -21 -16z"/>
<path d="M2356 2995 c-16 -9 -39 -27 -52 -40 -13 -14 -29 -25 -35 -25 -21 0
-156 -70 -175 -91 -9 -10 -23 -19 -31 -19 -22 0 -86 -36 -108 -60 -11 -13 -33
-31 -50 -41 -35 -22 -163 -144 -187 -179 -37 -52 -23 -52 136 0 66 22 155 47
196 55 41 9 94 23 117 32 41 15 42 15 77 -12 20 -15 36 -29 36 -31 0 -3 -14
-32 -30 -65 -22 -43 -40 -64 -64 -76 -19 -9 -39 -26 -45 -39 -6 -13 -15 -24
-21 -24 -5 0 -10 -5 -10 -12 0 -6 -11 -25 -23 -42 -13 -17 -27 -43 -30 -58 -4
-15 -16 -29 -27 -33 -23 -7 -64 -70 -55 -85 4 -6 -7 -26 -24 -45 -31 -35 -36
-53 -46 -162 -6 -58 -4 -63 20 -79 15 -9 25 -26 25 -39 0 -62 89 -157 176
-189 27 -10 53 -23 58 -27 6 -5 19 -9 31 -9 20 0 85 -51 85 -67 0 -14 -68 -63
-89 -63 -11 0 -22 -4 -25 -9 -3 -5 -18 -12 -32 -15 -15 -4 -41 -18 -59 -32
-17 -13 -37 -24 -42 -24 -19 0 -133 -89 -133 -104 0 -8 -9 -24 -19 -37 -16
-19 -22 -22 -32 -11 -21 20 -38 14 -87 -33 -26 -25 -54 -45 -63 -45 -9 0 -19
-7 -23 -15 -3 -8 -11 -15 -19 -15 -7 0 -27 -15 -43 -33 -16 -17 -48 -48 -69
-69 -61 -55 -84 -92 -94 -144 -5 -25 -14 -49 -19 -53 -6 -3 -12 -24 -14 -46
-3 -36 -1 -40 27 -48 53 -16 100 -44 110 -66 5 -12 15 -19 22 -17 6 3 23 -4
36 -15 14 -10 32 -19 40 -19 9 0 17 -3 19 -7 2 -5 20 -16 41 -25 20 -10 37
-25 37 -33 0 -9 23 -39 50 -68 28 -29 70 -72 94 -97 24 -25 49 -59 56 -77 7
-18 23 -36 38 -43 15 -6 38 -17 52 -25 38 -22 164 -20 214 4 23 10 57 27 76
36 31 15 129 126 139 158 3 12 45 104 87 191 13 28 24 55 24 62 0 6 9 33 21
59 11 26 18 56 16 67 -3 11 3 37 14 57 10 20 19 55 19 80 0 24 5 62 12 84 10
32 20 43 52 58 50 23 70 24 86 4 11 -13 28 -15 96 -9 52 4 89 3 96 -3 7 -6 40
-13 73 -17 61 -6 61 -6 115 38 90 73 100 84 100 110 0 14 5 28 10 31 23 14 9
45 -27 64 -21 10 -47 28 -57 40 -11 12 -27 21 -37 21 -10 0 -23 9 -29 20 -10
18 -112 100 -125 100 -3 0 -23 13 -43 29 -41 32 -87 42 -227 47 -118 4 -155
17 -199 70 -21 24 -42 44 -49 44 -7 0 -22 10 -34 23 -12 12 -41 41 -64 63 -23
23 -50 50 -61 60 -91 91 -103 136 -56 223 32 60 91 127 119 136 10 3 31 30 48
60 20 36 43 61 70 76 23 12 43 30 46 40 3 9 23 28 45 42 21 15 42 37 45 49 4
13 22 43 40 68 38 54 51 129 27 154 -11 11 -12 18 -4 28 7 9 8 19 2 28 -15 24
-12 33 10 27 11 -3 20 -2 20 2 0 10 -95 111 -104 111 -4 0 -31 20 -59 44 -29
24 -62 46 -74 50 -11 4 -27 13 -33 21 -17 20 -106 19 -144 0z m-83 -1606 c-7
-7 -20 -8 -30 -5 -17 7 -17 8 1 22 23 17 48 2 29 -17z m-189 -78 c8 -13 -69
-61 -98 -61 -45 0 -38 20 16 44 59 27 74 30 82 17z m315 -183 c10 -32 10 -41
-3 -60 -9 -12 -16 -35 -16 -50 0 -16 -12 -51 -26 -78 -15 -28 -27 -64 -29 -81
-1 -18 -14 -42 -34 -61 -17 -17 -34 -42 -37 -57 -9 -40 -128 -149 -171 -157
-47 -9 -138 14 -188 47 -22 14 -53 29 -69 33 -15 4 -38 18 -50 32 -11 14 -33
37 -48 52 -32 29 -35 45 -10 70 9 9 17 26 17 37 0 13 9 21 30 25 41 9 79 34
147 97 31 29 61 53 67 53 23 0 95 40 175 98 35 25 63 35 128 46 93 15 97 13
117 -46z"/>
</g>
</svg>
